<svg width="177" height="86" viewBox="0 0 177 86" fill="none" xmlns="http://www.w3.org/2000/svg">
<path d="M60.258 13.5979L57.258 20.0979C16.9687 16.3344 16.5548 19.8674 31.258 34.0979C-26.4677 1.42182 3.13655 2.36879 60.258 13.5979Z" fill="#F59E0B"/>
<path d="M38.7581 36.5978C155.563 72.7237 163.504 68.0956 141.258 44.0978C212.908 87.3633 174.336 90.727 38.7581 36.5978Z" fill="#F59E0B"/>
<path d="M79.5 51.5C80.8424 65.2803 87.7856 75.8715 98.7581 85.5975C69.5209 80.5521 58.7399 70.2358 53 42L79.5 51.5Z" fill="#F59E0B"/>
<path d="M120.5 8.00001C86.8849 -12.6602 57.7164 17 55 36C65.5 41 63.4584 40.9023 79 45.5C78.4584 28.4023 85 14.5 120.5 8.00001Z" fill="#F59E0B"/>
</svg>
